<?xml version="1.0" encoding="UTF-8"?>
<!DOCTYPE svg PUBLIC "-//W3C//DTD SVG 1.1//EN" "http://www.w3.org/Graphics/SVG/1.1/DTD/svg11.dtd">
<!-- Creator: CorelDRAW X5 -->
<svg xmlns="http://www.w3.org/2000/svg" xml:space="preserve" width="301px" height="90px" style="shape-rendering:geometricPrecision; text-rendering:geometricPrecision; image-rendering:optimizeQuality; fill-rule:evenodd; clip-rule:evenodd"
viewBox="0 0 3010 901"
 xmlns:xlink="http://www.w3.org/1999/xlink">
 <defs>
  <style type="text/css">
   <![CDATA[
    .fil2 {fill:#10ABC6}
    .fil0 {fill:white}
    .fil1 {fill:#10ABC6;fill-rule:nonzero}
   ]]>
  </style>
 </defs>
 <g id="Capa_x0020_1">
  <metadata id="CorelCorpID_0Corel-Layer"/>
  <rect class="fil0" x="20" y="20" width="2970" height="861"/>
  <path class="fil1" d="M40 861l2931 0 0 -822 -2931 0 0 822zm2951 40l-2970 0 -20 0 0 -20 0 -861 0 -20 20 0 2970 0 20 0 0 20 0 861 0 20 -20 0z"/>
  <path class="fil2" d="M765 321l-150 376c-1,3 -4,5 -7,5l0 0 -24 0c-3,0 -6,-2 -7,-5l-151 -377c-2,-4 0,-8 4,-10 1,0 2,-1 3,-1l0 0 21 0c4,0 8,1 11,4l0 0c2,2 4,5 5,8l0 0 125 313 0 0c0,1 0,1 1,2l1 -2c0,0 0,-1 0,-1l124 -312c1,-2 1,-3 2,-5l0 0c1,-1 2,-2 3,-4 2,-1 3,-2 5,-3 2,-1 4,-1 6,-1l19 0c1,0 1,0 2,0 4,0 7,3 7,7l0 0c0,1 0,3 -1,4zm1802 45c-1,3 -3,5 -5,6 -2,2 -5,2 -8,2 -3,0 -5,-1 -8,-2 -2,-1 -4,-3 -6,-5l0 0 0 0c-2,-2 -4,-3 -6,-5 -2,-2 -5,-3 -8,-5l0 0 0 0c-3,-2 -6,-4 -9,-5 -4,-2 -7,-3 -12,-5 -4,-2 -9,-3 -14,-3 -5,-1 -11,-1 -17,-1 -6,0 -12,0 -17,1 -5,1 -10,2 -15,4 -5,2 -9,4 -13,6 -4,2 -7,5 -10,8 -6,6 -11,13 -14,21 -2,4 -3,8 -4,12 -1,4 -1,9 -1,13 0,12 2,21 7,28 2,4 5,7 8,10 3,3 7,6 11,9 4,3 8,5 13,8 5,2 10,4 15,6l0 0 0 0c6,2 11,4 16,6 5,2 11,4 17,6 12,4 23,8 34,13 6,3 11,5 17,9 5,3 10,7 15,10 5,4 9,8 13,13 4,5 7,10 10,15 6,11 9,25 9,42 0,17 -3,32 -8,47l0 0 0 0c-3,7 -6,14 -10,21 -4,6 -9,12 -14,18 -5,6 -11,11 -18,15 -7,4 -14,8 -21,11 -8,3 -16,5 -25,7 -9,2 -18,2 -28,2 -25,0 -47,-5 -66,-14 -18,-9 -34,-22 -48,-38 -2,-3 -2,-6 -1,-9l0 0 7 -12c0,0 0,0 0,-1l0 0c2,-2 3,-4 6,-5 2,-1 5,-2 8,-2 2,0 4,1 6,2 1,1 3,2 5,3 2,2 5,5 9,8l0 0 0 0c2,2 3,3 5,5 2,2 4,3 6,5 2,2 5,3 7,5l0 0c3,2 5,3 8,4 0,0 0,0 1,0 6,3 13,5 20,7 4,1 8,2 12,2 4,1 9,1 14,1 7,0 13,-1 19,-2 6,-1 12,-3 17,-5 5,-2 10,-4 14,-7 4,-3 8,-6 12,-10l0 0c4,-4 7,-7 9,-12 3,-4 5,-9 7,-14 4,-10 6,-21 6,-32 0,-12 -2,-22 -7,-29 0,0 0,0 0,0 -2,-4 -5,-7 -8,-10 -3,-3 -7,-6 -10,-9 -4,-3 -9,-5 -13,-8 -5,-2 -9,-4 -15,-6 -11,-4 -22,-8 -34,-11 0,0 0,0 -1,0 -6,-2 -12,-4 -17,-6 -6,-2 -11,-4 -17,-7 -6,-3 -11,-5 -17,-9 -5,-3 -10,-7 -15,-10 -5,-4 -9,-8 -13,-13 -4,-5 -7,-10 -10,-16 -3,-6 -5,-13 -7,-20 -1,-7 -2,-15 -2,-24 0,-14 3,-27 8,-39 3,-6 6,-12 9,-18 4,-6 8,-11 13,-16l0 0 0 0c5,-5 10,-9 16,-13 6,-4 12,-7 19,-10 7,-3 15,-5 23,-7 8,-1 16,-2 25,-2 10,0 19,1 28,3 9,2 18,4 26,7l0 0c8,3 16,7 23,13 7,5 14,11 21,18 2,2 3,6 1,8l0 0 -6 13 0 0 0 0zm-245 335l-20 0c-4,0 -8,-1 -11,-4l0 0c-2,-2 -4,-5 -5,-8l0 0 -41 -105 -170 0 -41 105c-1,2 -1,3 -2,5l0 0c-1,1 -2,2 -3,4 -2,1 -3,2 -5,3 -2,1 -4,1 -6,1l-20 0c-4,0 -7,-3 -7,-7 0,-1 0,-2 1,-3l149 -377c1,-3 4,-5 7,-5l0 0 26 0c3,0 6,2 7,5l149 377c2,4 0,8 -4,10 -1,0 -2,1 -3,1l0 0zm-92 -152l-70 -180 0 0 0 -1c0,0 0,1 0,1l-70 180 141 0zm18 -341l-84 76 0 0c-1,1 -3,2 -4,3 -2,1 -3,1 -5,2 -1,0 -2,0 -3,0 -1,0 -2,0 -4,0l-17 0c-4,0 -7,-3 -7,-7 0,-2 1,-4 2,-5l66 -73 0 0c3,-3 6,-6 10,-7 1,0 3,-1 6,-1 2,0 4,0 6,0l29 0c4,0 7,3 7,7 0,2 -1,4 -3,6zm-305 108l0 377c0,4 -3,7 -7,7l-23 0c-4,0 -7,-3 -7,-7l0 -306 -129 237 0 0c-2,3 -4,6 -7,8 -3,2 -6,3 -10,3l-4 0c-7,0 -13,-4 -17,-11l0 0 -133 -238 0 307c0,4 -3,7 -7,7l-23 0c-4,0 -7,-3 -7,-7l0 -377c0,-4 3,-7 7,-7l18 0c3,0 7,1 9,2 1,1 3,2 4,3 1,1 2,2 3,4 0,0 0,0 0,0l0 0 148 262c0,0 0,0 0,0l0 0 1 -1 0 0 143 -262c0,0 0,0 0,0l0 0c1,-2 2,-3 3,-4 1,-2 3,-3 5,-3 1,-1 3,-1 4,-1l0 0c1,0 3,0 4,0l18 0c4,0 7,3 7,7l0 0zm-571 384l-23 0c-4,0 -7,-1 -10,-2 -2,-1 -4,-2 -5,-4 -1,-1 -2,-3 -3,-4l-117 -153c0,0 0,0 0,0 -1,-1 -2,-3 -4,-4 -1,-1 -1,-1 -2,-1l0 0 0 0 -1 0 0 0 0 0c-1,0 -3,-1 -4,-1 -2,0 -5,-1 -8,-1l-41 0 0 163c0,4 -3,7 -7,7l-27 0c-4,0 -7,-3 -7,-7l0 -377c0,-4 3,-7 7,-7l94 0c22,0 41,2 57,7 17,4 31,11 42,20 11,9 20,20 26,34 6,13 9,29 9,46 0,8 -1,15 -2,22 -1,7 -3,14 -6,20l0 0c-3,7 -6,13 -10,18 -4,6 -8,11 -13,16 -5,5 -10,9 -16,13 -6,4 -12,7 -19,10l0 0 0 0c-9,4 -19,7 -30,9 0,0 1,1 1,1l0 0 126 163c3,3 2,8 -1,10 -1,1 -3,2 -5,2l0 0zm-162 -206c8,0 15,0 22,-1 7,-1 13,-2 19,-4l0 0c6,-2 11,-4 16,-7 5,-3 10,-6 13,-9 4,-3 7,-7 10,-11 3,-4 6,-9 8,-13 2,-5 4,-10 5,-15 1,-5 2,-11 2,-17 0,-24 -8,-42 -23,-54 -8,-6 -17,-10 -29,-13 -12,-3 -25,-5 -41,-5l-60 0 0 150 56 0zm-163 177l-1 22c0,4 -3,7 -7,7l0 0 -219 0c-4,0 -7,-3 -7,-7l0 -377c0,-4 3,-7 7,-7l219 0c4,0 7,3 7,7l0 23c0,4 -3,7 -7,7l-185 0 0 138 153 0c4,0 7,3 7,7l0 22c0,4 -3,7 -7,7l-153 0 0 142 184 0c1,0 1,0 2,0 4,0 7,3 7,7l0 0c0,0 0,1 0,1z"/>
 </g>
</svg>
