<?xml version="1.0" encoding="utf-8"?>
<!-- Generator: Adobe Illustrator 23.1.0, SVG Export Plug-In . SVG Version: 6.00 Build 0)  -->
<svg version="1.1" id="Capa_1" xmlns="http://www.w3.org/2000/svg" xmlns:xlink="http://www.w3.org/1999/xlink" x="0px" y="0px"
	 viewBox="0 0 100 30" style="enable-background:new 0 0 100 30;" xml:space="preserve">
<style type="text/css">
	.st0{fill:#10ABC6;}
	.st1{fill:#F0F1F1;}
</style>
<g>
	<rect x="0" y="0" class="st0" width="100" height="30"/>
	<g>
		<path class="st1" d="M25.22,7.97l-5.13,12.99h-1.53L13.42,7.97h1.36c0.15,0,0.28,0.04,0.37,0.12s0.16,0.18,0.21,0.3l3.55,9.17
			c0.08,0.21,0.15,0.43,0.22,0.67c0.07,0.24,0.14,0.5,0.2,0.76c0.06-0.27,0.12-0.52,0.19-0.76c0.06-0.24,0.13-0.47,0.21-0.67
			l3.54-9.17c0.04-0.1,0.1-0.2,0.21-0.29c0.1-0.09,0.23-0.13,0.37-0.13H25.22z"/>
		<path class="st1" d="M34.66,19.53l-0.01,1.43h-7.76V7.97h7.76v1.43h-6.06v4.31h4.91v1.38h-4.91v4.43H34.66z"/>
		<path class="st1" d="M46.35,20.96h-1.51c-0.31,0-0.54-0.12-0.69-0.37l-3.27-4.64c-0.1-0.15-0.21-0.25-0.32-0.31
			s-0.29-0.1-0.53-0.1h-1.29v5.42h-1.7V7.97h3.56c0.8,0,1.49,0.08,2.07,0.25c0.58,0.17,1.06,0.41,1.44,0.72
			c0.38,0.31,0.66,0.69,0.84,1.14c0.18,0.44,0.27,0.94,0.27,1.49c0,0.46-0.07,0.89-0.21,1.29s-0.34,0.76-0.61,1.07
			c-0.27,0.32-0.59,0.59-0.98,0.81c-0.38,0.22-0.82,0.39-1.31,0.51c0.22,0.13,0.4,0.31,0.56,0.55L46.35,20.96z M40.53,14.27
			c0.49,0,0.93-0.06,1.31-0.19c0.38-0.12,0.69-0.3,0.95-0.53c0.26-0.23,0.45-0.5,0.58-0.81c0.13-0.31,0.19-0.66,0.19-1.04
			c0-0.77-0.25-1.36-0.74-1.75c-0.49-0.39-1.23-0.59-2.22-0.59h-1.86v4.9H40.53z"/>
		<path class="st1" d="M65.67,7.97v12.99h-1.49v-9.55c0-0.13,0-0.26,0.01-0.41s0.02-0.29,0.03-0.44l-4.33,8.12
			c-0.13,0.27-0.34,0.41-0.62,0.41h-0.25c-0.28,0-0.48-0.14-0.62-0.41L54,10.53c0.04,0.32,0.05,0.62,0.05,0.89v9.55h-1.49V7.97h1.26
			c0.15,0,0.27,0.02,0.35,0.05s0.16,0.11,0.24,0.25l4.35,8c0.07,0.14,0.14,0.3,0.21,0.45s0.13,0.32,0.19,0.48
			c0.06-0.16,0.12-0.33,0.18-0.49s0.13-0.31,0.21-0.46l4.27-7.99c0.07-0.14,0.15-0.22,0.23-0.25s0.2-0.05,0.36-0.05H65.67z"/>
		<path class="st1" d="M79.13,20.96h-1.32c-0.15,0-0.28-0.04-0.37-0.12c-0.09-0.08-0.16-0.18-0.21-0.3l-1.18-3.14H70.4l-1.18,3.14
			c-0.04,0.11-0.1,0.21-0.2,0.29s-0.22,0.13-0.37,0.13h-1.32l5.04-12.99h1.72L79.13,20.96z M75.58,16.14l-1.98-5.29
			c-0.06-0.16-0.12-0.34-0.18-0.55s-0.13-0.43-0.18-0.67c-0.12,0.49-0.25,0.9-0.38,1.22l-1.98,5.28H75.58z M76.55,4.18l-2.87,2.59
			c-0.09,0.08-0.17,0.14-0.25,0.15s-0.18,0.03-0.3,0.03h-1.13l2.03-2.48c0.1-0.13,0.2-0.21,0.3-0.25c0.1-0.03,0.25-0.05,0.44-0.05
			H76.55z"/>
		<path class="st1" d="M87.23,10.01c-0.05,0.09-0.11,0.16-0.17,0.2c-0.06,0.04-0.14,0.07-0.22,0.07c-0.1,0-0.22-0.05-0.35-0.15
			c-0.13-0.1-0.3-0.22-0.51-0.34s-0.45-0.24-0.73-0.34c-0.28-0.1-0.63-0.15-1.03-0.15c-0.38,0-0.72,0.05-1.01,0.16
			c-0.29,0.11-0.53,0.25-0.73,0.43s-0.34,0.39-0.44,0.64c-0.1,0.24-0.15,0.51-0.15,0.79c0,0.36,0.09,0.66,0.26,0.9
			c0.17,0.24,0.4,0.44,0.69,0.61c0.28,0.17,0.61,0.32,0.97,0.44s0.73,0.25,1.11,0.39c0.38,0.13,0.75,0.28,1.11,0.45
			c0.36,0.17,0.68,0.38,0.97,0.63s0.51,0.57,0.69,0.93c0.17,0.37,0.26,0.82,0.26,1.36c0,0.57-0.09,1.1-0.28,1.6
			c-0.19,0.5-0.46,0.93-0.82,1.3c-0.36,0.37-0.8,0.66-1.33,0.87c-0.52,0.21-1.12,0.32-1.79,0.32c-0.82,0-1.57-0.15-2.23-0.46
			c-0.67-0.31-1.24-0.72-1.71-1.24l0.49-0.83c0.05-0.07,0.1-0.12,0.17-0.17s0.14-0.07,0.22-0.07c0.08,0,0.16,0.03,0.26,0.1
			s0.21,0.14,0.33,0.24s0.26,0.2,0.42,0.32c0.16,0.11,0.34,0.22,0.54,0.32s0.43,0.18,0.69,0.24s0.55,0.09,0.87,0.09
			c0.4,0,0.76-0.06,1.08-0.17c0.32-0.12,0.58-0.28,0.8-0.49c0.22-0.21,0.39-0.46,0.51-0.75c0.12-0.29,0.18-0.61,0.18-0.97
			c0-0.39-0.09-0.71-0.26-0.96c-0.17-0.25-0.4-0.46-0.68-0.63c-0.28-0.17-0.6-0.31-0.97-0.43c-0.36-0.12-0.73-0.24-1.11-0.36
			c-0.38-0.12-0.75-0.27-1.11-0.43s-0.69-0.37-0.97-0.63s-0.51-0.58-0.68-0.97s-0.26-0.87-0.26-1.45c0-0.46,0.09-0.9,0.26-1.33
			s0.42-0.81,0.76-1.14c0.33-0.33,0.74-0.6,1.22-0.8c0.48-0.2,1.04-0.3,1.67-0.3c0.7,0,1.34,0.11,1.92,0.34
			c0.58,0.23,1.09,0.56,1.53,1L87.23,10.01z"/>
	</g>
</g>
<g>
</g>
<g>
</g>
<g>
</g>
<g>
</g>
<g>
</g>
<g>
</g>
<g>
</g>
<g>
</g>
<g>
</g>
<g>
</g>
<g>
</g>
<g>
</g>
<g>
</g>
<g>
</g>
<g>
</g>
</svg>
