<?xml version="1.0" encoding="utf-8"?>
<!-- Generator: Adobe Illustrator 23.1.0, SVG Export Plug-In . SVG Version: 6.00 Build 0)  -->
<svg version="1.1" id="Capa_1" xmlns="http://www.w3.org/2000/svg" xmlns:xlink="http://www.w3.org/1999/xlink" x="0px" y="0px"
	 viewBox="0 0 100 30" style="enable-background:new 0 0 100 30;" xml:space="preserve">
<style type="text/css">
	.st0{fill:none;stroke:#FFFFFF;stroke-miterlimit:10;}
	.st1{fill:#FFFFFF;}
</style>
<rect x="0" y="0" class="st0" width="100" height="30"/>
<g>
	<path class="st1" d="M24.67,9.41l-5.13,12.83h-0.8L13.6,9.41h0.71c0.08,0,0.15,0.02,0.2,0.07c0.05,0.04,0.09,0.1,0.12,0.18
		l4.24,10.64c0.05,0.13,0.09,0.27,0.14,0.43s0.09,0.3,0.13,0.46c0.04-0.16,0.07-0.31,0.11-0.46s0.09-0.29,0.14-0.43l4.23-10.64
		c0.02-0.07,0.06-0.12,0.12-0.17c0.06-0.05,0.13-0.07,0.21-0.07H24.67z"/>
	<path class="st1" d="M34.21,21.46l-0.02,0.77h-7.46V9.41h7.46v0.77h-6.55v5.19h5.45v0.75h-5.45v5.35H34.21z"/>
	<path class="st1" d="M45.52,22.23h-0.77c-0.1,0-0.18-0.02-0.25-0.05s-0.13-0.1-0.19-0.19l-3.99-5.2c-0.05-0.07-0.1-0.12-0.15-0.17
		c-0.05-0.05-0.11-0.09-0.17-0.11s-0.14-0.05-0.22-0.06c-0.08-0.01-0.19-0.02-0.31-0.02h-1.63v5.8h-0.91V9.41h3.18
		c1.43,0,2.5,0.29,3.21,0.86c0.71,0.57,1.07,1.41,1.07,2.52c0,0.49-0.08,0.94-0.25,1.34c-0.16,0.41-0.4,0.76-0.71,1.07
		s-0.68,0.55-1.12,0.75c-0.44,0.19-0.93,0.32-1.47,0.39c0.14,0.09,0.27,0.21,0.38,0.36L45.52,22.23z M39.99,15.74
		c0.55,0,1.04-0.07,1.48-0.2c0.44-0.14,0.81-0.33,1.11-0.58c0.3-0.25,0.53-0.56,0.69-0.92c0.16-0.36,0.24-0.76,0.24-1.21
		c0-0.91-0.29-1.59-0.87-2.03c-0.58-0.44-1.42-0.66-2.53-0.66h-2.28v5.6H39.99z"/>
	<path class="st1" d="M64.67,9.41v12.83h-0.78V11.3c0-0.16,0.01-0.32,0.03-0.5l-4.9,8.97c-0.08,0.16-0.2,0.24-0.35,0.24h-0.14
		c-0.15,0-0.27-0.08-0.35-0.24l-5.03-8.98c0.02,0.18,0.03,0.35,0.03,0.52v10.93h-0.79V9.41h0.62c0.08,0,0.15,0.01,0.19,0.03
		s0.09,0.07,0.14,0.15l5.02,8.92c0.09,0.17,0.16,0.35,0.23,0.54c0.04-0.1,0.07-0.19,0.11-0.29s0.09-0.18,0.13-0.27l4.88-8.91
		c0.05-0.08,0.1-0.13,0.14-0.15c0.05-0.02,0.12-0.03,0.2-0.03H64.67z"/>
	<path class="st1" d="M77.81,22.23h-0.69c-0.08,0-0.15-0.02-0.2-0.07c-0.05-0.04-0.09-0.1-0.12-0.18l-1.46-3.73h-6.11l-1.46,3.73
		c-0.02,0.07-0.06,0.12-0.12,0.17c-0.06,0.05-0.13,0.07-0.21,0.07h-0.69l5.09-12.83h0.89L77.81,22.23z M75.06,17.58l-2.53-6.48
		c-0.09-0.21-0.17-0.47-0.25-0.76c-0.04,0.15-0.07,0.28-0.11,0.41s-0.08,0.25-0.13,0.36l-2.53,6.47H75.06z M75.14,5.55l-2.88,2.6
		c-0.05,0.05-0.11,0.08-0.16,0.09c-0.05,0.01-0.11,0.02-0.18,0.02h-0.57l2.27-2.51c0.07-0.08,0.14-0.14,0.21-0.16
		c0.07-0.02,0.18-0.04,0.32-0.04H75.14z"/>
	<path class="st1" d="M85.92,10.97c-0.05,0.1-0.13,0.15-0.23,0.15c-0.08,0-0.17-0.06-0.29-0.17s-0.28-0.24-0.49-0.37
		c-0.21-0.14-0.46-0.26-0.77-0.38s-0.69-0.17-1.14-0.17s-0.85,0.07-1.19,0.2s-0.63,0.31-0.86,0.54c-0.23,0.23-0.41,0.5-0.53,0.8
		c-0.12,0.3-0.18,0.62-0.18,0.95c0,0.44,0.09,0.79,0.27,1.08s0.42,0.53,0.71,0.73c0.29,0.2,0.63,0.37,1,0.5
		c0.37,0.14,0.75,0.27,1.15,0.4s0.78,0.28,1.15,0.44s0.71,0.36,1,0.6c0.29,0.24,0.53,0.54,0.71,0.89c0.18,0.35,0.27,0.79,0.27,1.32
		c0,0.54-0.09,1.04-0.27,1.52c-0.18,0.47-0.44,0.89-0.78,1.24s-0.76,0.63-1.25,0.83c-0.49,0.2-1.05,0.3-1.69,0.3
		c-0.82,0-1.53-0.15-2.12-0.45s-1.11-0.71-1.56-1.23l0.25-0.4c0.07-0.09,0.15-0.14,0.25-0.14c0.05,0,0.12,0.04,0.2,0.11
		c0.08,0.07,0.18,0.16,0.3,0.27s0.26,0.22,0.42,0.34c0.16,0.12,0.35,0.24,0.57,0.34c0.22,0.11,0.47,0.2,0.75,0.27
		s0.6,0.11,0.96,0.11c0.49,0,0.93-0.08,1.32-0.23s0.71-0.36,0.98-0.63c0.27-0.27,0.47-0.58,0.61-0.95c0.14-0.37,0.21-0.76,0.21-1.17
		c0-0.45-0.09-0.83-0.27-1.12s-0.42-0.54-0.71-0.73s-0.63-0.36-1-0.49c-0.37-0.13-0.75-0.26-1.15-0.39
		c-0.39-0.13-0.78-0.27-1.15-0.43c-0.37-0.16-0.71-0.36-1-0.6c-0.29-0.24-0.53-0.55-0.71-0.92c-0.18-0.37-0.27-0.82-0.27-1.37
		c0-0.43,0.08-0.84,0.24-1.24s0.39-0.75,0.69-1.06c0.3-0.3,0.68-0.55,1.13-0.73c0.45-0.18,0.96-0.28,1.53-0.28
		c0.64,0,1.22,0.11,1.74,0.32c0.51,0.21,0.98,0.53,1.4,0.97L85.92,10.97z"/>
</g>
</svg>
