<svg id="Capa_1" data-name="Capa 1" xmlns="http://www.w3.org/2000/svg" viewBox="0 0 239 240"><defs><style>.cls-1{fill:#fff;}</style></defs><path class="cls-1" d="M239,113v12c-.79,5.21-1.39,10.45-2.4,15.62C222.19,214.76,146,257.28,75.91,229.47c-10.71-4.26-19.77-4.88-30.31-1.55C31.23,232.46,16.55,236,2,240H0a49.05,49.05,0,0,1,.81-4.85c4.41-16.36,8.61-32.79,13.46-49,1.61-5.37,1-9.59-1.45-14.52C-20,106.05,15,25.59,85.37,4.94,92.15,3,99.12,1.63,106,0h27a16.19,16.19,0,0,0,2.66.94C186,9.69,219,38.37,234.11,87.22,236.67,95.53,237.42,104.39,239,113ZM28.43,211.46c11.55-3,22.06-6,32.7-8.37a12.7,12.7,0,0,1,8.27,1c20.13,11.29,41.52,16.17,64.42,12.54,54.61-8.65,90.54-57.25,83.27-112.29-7-53-59.44-91.81-112.39-83.08C36,32.62-.11,106.52,33.78,167.14c3.53,6.33,4,11.61,1.87,18.11C33,193.55,31,202.08,28.43,211.46Z"/><path class="cls-1" d="M150.52,176.26c-13.75-.84-26.26-5.91-37.85-12.81-21.39-12.72-37.6-30.67-49-52.68C55.42,94.88,57.76,79.54,69,67.88c3.62-3.74,12.77-5.75,17.17-3.34a9.79,9.79,0,0,1,3.62,4.51C93,76.36,95.91,83.8,99.08,91.12c1.87,4.33-.47,7.38-2.8,10.43-7.36,9.64-7.35,9.58-.12,19.43a80.05,80.05,0,0,0,34.64,26.9c3.15,1.3,5.35.86,7.38-1.79,2.63-3.43,5.5-6.68,8-10.17,1.88-2.56,4-3.34,6.88-2,8.11,3.83,16.27,7.57,24.26,11.65a5.75,5.75,0,0,1,2.5,4.33c0,7.58-1.85,14.46-8.45,19.28C165.19,173.76,158.45,176.61,150.52,176.26Z"/></svg>